<svg id="cart" xmlns="http://www.w3.org/2000/svg" width="39" height="36" viewBox="0 0 39 36">
  <defs>
    <style>
      .cls-1 {
        fill: #fff;
        fill-rule: evenodd;
      }
    </style>
  </defs>
  <path id="cart-0" class="cls-1" d="M30.881,26.195A4.906,4.906,0,1,0,35.744,31.1,4.89,4.89,0,0,0,30.881,26.195Zm0,6.868A1.962,1.962,0,1,1,32.826,31.1,1.956,1.956,0,0,1,30.881,33.062Zm7.81-25.827a1.452,1.452,0,0,0-1.148-.565H9.008L7.695,1.129A1.462,1.462,0,0,0,6.276,0H1.462a1.472,1.472,0,0,0,0,2.943H5.125L9.866,22.955a1.462,1.462,0,0,0,1.419,1.13H33.994a1.461,1.461,0,0,0,1.416-1.117L38.959,8.5A1.485,1.485,0,0,0,38.692,7.235ZM32.852,21.141H12.436L9.705,9.614H35.679ZM13.23,26.195A4.906,4.906,0,1,0,18.092,31.1,4.89,4.89,0,0,0,13.23,26.195Zm0,6.868A1.962,1.962,0,1,1,15.175,31.1,1.956,1.956,0,0,1,13.23,33.062Z"/>
</svg>
